<mxfile host="Electron" agent="Mozilla/5.0 (Windows NT 10.0; Win64; x64) AppleWebKit/537.36 (KHTML, like Gecko) draw.io/28.1.2 Chrome/138.0.7204.243 Electron/37.4.0 Safari/537.36" version="28.1.2">
  <diagram name="Seite-1" id="xgVvIlodTqHqPv7XsFG9">
    <mxGraphModel dx="1426" dy="841" grid="1" gridSize="10" guides="1" tooltips="1" connect="1" arrows="1" fold="1" page="1" pageScale="1" pageWidth="827" pageHeight="1169" math="0" shadow="0">
      <root>
        <mxCell id="0" />
        <mxCell id="1" parent="0" />
        <mxCell id="dMoNNT-sblt3mGnqvJ9J-1" value="" style="edgeStyle=orthogonalEdgeStyle;rounded=0;orthogonalLoop=1;jettySize=auto;html=1;" edge="1" parent="1" source="_YIz_95EXHQ6o6F8nr2A-1" target="_YIz_95EXHQ6o6F8nr2A-3">
          <mxGeometry relative="1" as="geometry" />
        </mxCell>
        <mxCell id="_YIz_95EXHQ6o6F8nr2A-1" value="Start" style="ellipse;whiteSpace=wrap;html=1;" parent="1" vertex="1">
          <mxGeometry x="340" y="120" width="120" height="80" as="geometry" />
        </mxCell>
        <mxCell id="_YIz_95EXHQ6o6F8nr2A-2" value="END" style="ellipse;whiteSpace=wrap;html=1;" parent="1" vertex="1">
          <mxGeometry x="340" y="460" width="120" height="80" as="geometry" />
        </mxCell>
        <mxCell id="dMoNNT-sblt3mGnqvJ9J-2" value="" style="edgeStyle=orthogonalEdgeStyle;rounded=0;orthogonalLoop=1;jettySize=auto;html=1;" edge="1" parent="1" source="_YIz_95EXHQ6o6F8nr2A-3" target="_YIz_95EXHQ6o6F8nr2A-2">
          <mxGeometry relative="1" as="geometry" />
        </mxCell>
        <mxCell id="_YIz_95EXHQ6o6F8nr2A-3" value="print: Hello!" style="rounded=0;whiteSpace=wrap;html=1;" parent="1" vertex="1">
          <mxGeometry x="340" y="300" width="120" height="60" as="geometry" />
        </mxCell>
        <mxCell id="_YIz_95EXHQ6o6F8nr2A-4" value="this process shall be written in&lt;br&gt;Python!" style="shape=document;whiteSpace=wrap;html=1;boundedLbl=1;" parent="1" vertex="1">
          <mxGeometry x="30" y="290" width="220" height="130" as="geometry" />
        </mxCell>
        <mxCell id="_YIz_95EXHQ6o6F8nr2A-5" value="Pseudo Code&lt;br&gt;----------------&lt;br&gt;Start&lt;br&gt;&lt;span style=&quot;white-space: pre;&quot;&gt;&#x9;&lt;/span&gt;PRINT &quot;HELLO!&quot;&lt;br&gt;&lt;div style=&quot;&quot;&gt;&lt;span style=&quot;background-color: transparent; color: light-dark(rgb(0, 0, 0), rgb(255, 255, 255));&quot;&gt;END&lt;/span&gt;&lt;/div&gt;" style="text;html=1;align=left;verticalAlign=middle;resizable=0;points=[];autosize=1;strokeColor=none;fillColor=none;" parent="1" vertex="1">
          <mxGeometry x="520" y="280" width="140" height="90" as="geometry" />
        </mxCell>
      </root>
    </mxGraphModel>
  </diagram>
</mxfile>
